<?xml version="1.0" encoding="UTF-8"?>
<svg id="Capa_1" xmlns="http://www.w3.org/2000/svg" version="1.1" viewBox="0 0 64 64">
  <!-- Generator: Adobe Illustrator 30.6.0, SVG Export Plug-In . SVG Version: 2.1.4 Build 109)  -->
  <defs>
    <style>
      .st0 {
        fill: #fff;
      }

      .st1 {
        fill: #460556;
      }
    </style>
  </defs>
  <rect class="st1" width="64" height="64" rx="8.8" ry="8.8"/>
  <g>
    <path class="st0" d="M36.3,11.5c0,2.5-2,4.6-4.5,4.6s-4.5-2.1-4.5-4.6,2-4.6,4.5-4.6,4.5,2.1,4.5,4.6Z"/>
    <path class="st0" d="M10.8,19.2c0-.6.4-1,1-1h40.4c.5,0,1,.4,1,1v1c0,.6-.4,1.1-1,1.2l-13.3,2.4c-.5,0-.9.6-.9,1.2l4,33c0,.5-.3,1-.9,1h-.5c-.5,0-1.2-.4-1.3-.9l-7-19.8c-.2-.5-.5-.5-.7,0l-7,19.8c-.2.5-.8.9-1.3.9h-.5c-.6,0-1-.4-.9-1l3.6-33.1c0-.5-.3-1.1-.9-1.2l-12.8-2.3c-.5,0-1-.6-1-1.2v-1Z"/>
  </g>
</svg>